<svg xmlns="http://www.w3.org/2000/svg" xmlns:xlink="http://www.w3.org/1999/xlink" version="1.1" x="0px" y="0px" viewBox="0 0 90 112.5" enable-background="new 0 0 90 90" xml:space="preserve"><rect x="29.143" y="41.598" width="31.715" height="6.804"/><path d="M12.097,62.816c-2.429,0-4.398-1.971-4.398-4.397V31.461c0-2.428,1.97-4.397,4.398-4.397s4.398,1.969,4.398,4.397v26.958  C16.495,60.846,14.525,62.816,12.097,62.816z"/><path d="M22.819,66.542c-2.43,0-4.398-1.97-4.398-4.399V27.855c0-2.428,1.969-4.397,4.398-4.397c2.429,0,4.398,1.97,4.398,4.397  v34.287C27.218,64.572,25.248,66.542,22.819,66.542z"/><path d="M5.773,40.765C3.894,41.264,2.5,42.962,2.5,45s1.394,3.735,3.273,4.234V40.765z"/><path d="M77.902,27.184c2.43,0,4.397,1.97,4.397,4.398V58.54c0,2.428-1.968,4.397-4.397,4.397s-4.397-1.97-4.397-4.397V31.582  C73.505,29.153,75.473,27.184,77.902,27.184z"/><path d="M67.179,23.458c2.43,0,4.4,1.97,4.4,4.399v34.288c0,2.428-1.971,4.397-4.4,4.397c-2.427,0-4.397-1.97-4.397-4.397V27.857  C62.781,25.428,64.752,23.458,67.179,23.458z"/><path d="M84.226,49.234C86.107,48.735,87.5,47.038,87.5,45s-1.393-3.736-3.274-4.235V49.234z"/><text x="0" y="105" fill="#000000" font-size="5px" font-weight="bold" font-family="'Helvetica Neue', Helvetica, Arial-Unicode, Arial, Sans-serif">Created by José Manuel de Laá</text><text x="0" y="110" fill="#000000" font-size="5px" font-weight="bold" font-family="'Helvetica Neue', Helvetica, Arial-Unicode, Arial, Sans-serif">from the Noun Project</text></svg>